<svg width="16" height="16" viewBox="0 0 16 16" fill="none" xmlns="http://www.w3.org/2000/svg">
<path d="M8.79999 13.6C8.80007 13.7363 8.83497 13.8704 8.90139 13.9894C8.96781 14.1085 9.06355 14.2085 9.17951 14.2802C9.29548 14.3518 9.42782 14.3927 9.564 14.3988C9.70017 14.4049 9.83566 14.3762 9.95759 14.3152L13.1576 12.7152C13.2905 12.6488 13.4022 12.5468 13.4804 12.4205C13.5585 12.2941 13.5999 12.1486 13.6 12V7.38884C13.5999 7.25252 13.565 7.11849 13.4986 6.99945C13.4322 6.88042 13.3364 6.78033 13.2205 6.70868C13.1045 6.63703 12.9722 6.59621 12.836 6.59007C12.6998 6.58394 12.5643 6.6127 12.4424 6.67364L9.24239 8.27364C9.10953 8.34003 8.99777 8.4421 8.91964 8.56842C8.8415 8.69473 8.80007 8.84031 8.79999 8.98884V13.6ZM12.1688 5.02084C12.3015 4.95433 12.4131 4.8522 12.4911 4.7259C12.569 4.59959 12.6103 4.45408 12.6103 4.30564C12.6103 4.1572 12.569 4.01168 12.4911 3.88538C12.4131 3.75907 12.3015 3.65695 12.1688 3.59044L8.35759 1.68484C8.24655 1.62935 8.12413 1.60046 7.99999 1.60046C7.87586 1.60046 7.75343 1.62935 7.64239 1.68484L3.83119 3.59044C3.69849 3.65695 3.58691 3.75907 3.50893 3.88538C3.43095 4.01168 3.38965 4.1572 3.38965 4.30564C3.38965 4.45408 3.43095 4.59959 3.50893 4.7259C3.58691 4.8522 3.69849 4.95433 3.83119 5.02084L7.64239 6.92644C7.75343 6.98192 7.87586 7.01081 7.99999 7.01081C8.12413 7.01081 8.24655 6.98192 8.35759 6.92644L12.1688 5.02084V5.02084ZM3.55759 6.67364C3.43566 6.6127 3.30017 6.58394 3.164 6.59007C3.02782 6.59621 2.89547 6.63703 2.77951 6.70868C2.66354 6.78033 2.56781 6.88042 2.50139 6.99945C2.43497 7.11849 2.40007 7.25252 2.39999 7.38884V12C2.40007 12.1486 2.4415 12.2941 2.51964 12.4205C2.59777 12.5468 2.70953 12.6488 2.84239 12.7152L6.04239 14.3152C6.16433 14.3762 6.29981 14.4049 6.43599 14.3988C6.57216 14.3927 6.70451 14.3518 6.82048 14.2802C6.93644 14.2085 7.03218 14.1085 7.0986 13.9894C7.16502 13.8704 7.19992 13.7363 7.19999 13.6V8.98884C7.19992 8.84031 7.15849 8.69473 7.08035 8.56842C7.00222 8.4421 6.89046 8.34003 6.75759 8.27364L3.55759 6.67364V6.67364Z" fill="#1F2A37"/>
</svg>
