<svg width="25" height="26" viewBox="0 0 25 26" fill="none" xmlns="http://www.w3.org/2000/svg">
<path d="M4.0625 6.75H2.1875C1.66797 6.75 1.25 7.16797 1.25 7.6875V11.75H0.3125C0.140625 11.75 0 11.8906 0 12.0625V13.9375C0 14.1094 0.140625 14.25 0.3125 14.25H1.25V18.3125C1.25 18.832 1.66797 19.25 2.1875 19.25H4.0625C4.58203 19.25 5 18.832 5 18.3125V7.6875C5 7.16797 4.58203 6.75 4.0625 6.75ZM24.6875 11.75H23.75V7.6875C23.75 7.16797 23.332 6.75 22.8125 6.75H20.9375C20.418 6.75 20 7.16797 20 7.6875V18.3125C20 18.832 20.418 19.25 20.9375 19.25H22.8125C23.332 19.25 23.75 18.832 23.75 18.3125V14.25H24.6875C24.8594 14.25 25 14.1094 25 13.9375V12.0625C25 11.8906 24.8594 11.75 24.6875 11.75ZM17.8125 4.25H15.9375C15.418 4.25 15 4.66797 15 5.1875V11.75H10V5.1875C10 4.66797 9.58203 4.25 9.0625 4.25H7.1875C6.66797 4.25 6.25 4.66797 6.25 5.1875V20.8125C6.25 21.332 6.66797 21.75 7.1875 21.75H9.0625C9.58203 21.75 10 21.332 10 20.8125V14.25H15V20.8125C15 21.332 15.418 21.75 15.9375 21.75H17.8125C18.332 21.75 18.75 21.332 18.75 20.8125V5.1875C18.75 4.66797 18.332 4.25 17.8125 4.25Z" fill="#FFFCFC"/>
</svg>
