<svg width="30" height="29" viewBox="0 0 30 29" fill="none" xmlns="http://www.w3.org/2000/svg">
<path fill-rule="evenodd" clip-rule="evenodd" d="M17.7913 3.16461C18.1885 3.26929 18.5212 3.54031 18.7062 3.90887C19.3989 5.29564 19.9166 6.1375 20.4372 6.82013C20.9649 7.51136 21.5213 8.07636 22.3703 8.92391C24.3293 10.8843 25.3102 13.4557 25.3102 16.0227C25.3102 18.5897 24.3293 21.1611 22.3703 23.1215C18.4495 27.0409 12.0936 27.0409 8.17279 23.1215C6.21382 21.1611 5.2329 18.5897 5.2329 16.0227C5.2329 13.4557 6.21382 10.8843 8.17279 8.92391C8.58295 8.51376 9.1996 8.39186 9.73595 8.61414C10.2723 8.83499 10.6208 9.35849 10.6208 9.93786C10.6208 11.544 10.7212 12.7673 11.1916 13.7439C11.4497 14.2803 11.8527 14.8052 12.5468 15.2741C12.7131 13.7526 13.0172 11.8983 13.4273 10.1401C13.75 8.75472 14.1515 7.37224 14.6305 6.21923C14.87 5.64129 15.1411 5.09343 15.4479 4.61874C15.7462 4.15696 16.1306 3.6881 16.6268 3.35682C16.9695 3.1288 17.394 3.05848 17.7913 3.16461ZM18.3133 21.9326C16.6339 23.6133 13.9092 23.6133 12.2298 21.9326C11.3895 21.0936 10.9693 19.9923 10.9693 18.8909C10.9693 18.8909 12.2298 19.6079 14.5545 19.6079C14.5545 18.1738 15.2716 13.8716 16.3471 13.1545C17.0642 14.5886 17.4743 15.0088 18.3133 15.8492C19.1536 16.6882 19.5738 17.7895 19.5738 18.8909C19.5738 19.9923 19.1536 21.0936 18.3133 21.9326Z" fill="white"/>
</svg>
