<svg width="30" height="29" viewBox="0 0 30 29" fill="none" xmlns="http://www.w3.org/2000/svg">
<path fill-rule="evenodd" clip-rule="evenodd" d="M17.3185 3.16461C17.7158 3.26929 18.0485 3.54031 18.2335 3.90887C18.9261 5.29564 19.4438 6.1375 19.9644 6.82013C20.4922 7.51136 21.0486 8.07636 21.8976 8.92391C23.8565 10.8843 24.8375 13.4557 24.8375 16.0227C24.8375 18.5897 23.8565 21.1611 21.8976 23.1215C17.9767 27.0409 11.6209 27.0409 7.70004 23.1215C5.74107 21.1611 4.76015 18.5897 4.76015 16.0227C4.76015 13.4557 5.74107 10.8843 7.70004 8.92391C8.11019 8.51376 8.72685 8.39186 9.2632 8.61414C9.79955 8.83499 10.148 9.35849 10.148 9.93786C10.148 11.544 10.2484 12.7673 10.7188 13.7439C10.9769 14.2803 11.3799 14.8052 12.074 15.2741C12.2404 13.7526 12.5444 11.8983 12.9546 10.1401C13.2772 8.75472 13.6788 7.37224 14.1578 6.21923C14.3972 5.64129 14.6683 5.09343 14.9752 4.61874C15.2735 4.15696 15.6578 3.6881 16.154 3.35682C16.4968 3.1288 16.9213 3.05848 17.3185 3.16461ZM17.8405 21.9326C16.1612 23.6133 13.4364 23.6133 11.7571 21.9326C10.9167 21.0936 10.4965 19.9923 10.4965 18.8909C10.4965 18.8909 11.7571 19.6079 14.0818 19.6079C14.0818 18.1738 14.7988 13.8716 15.8744 13.1545C16.5914 14.5886 17.0016 15.0088 17.8405 15.8492C18.6809 16.6882 19.1011 17.7895 19.1011 18.8909C19.1011 19.9923 18.6809 21.0936 17.8405 21.9326Z" fill="white"/>
</svg>
