<svg width="33" height="33" viewBox="0 0 33 33" fill="none" xmlns="http://www.w3.org/2000/svg">
<rect width="33" height="33" rx="16.5" fill="#FFFBFB" fill-opacity="0.1"/>
<path d="M13.7007 9.83398H19.3007C21.434 9.83398 23.1673 11.5673 23.1673 13.7007V19.3007C23.1673 20.3262 22.7599 21.3097 22.0348 22.0348C21.3097 22.7599 20.3262 23.1673 19.3007 23.1673H13.7007C11.5673 23.1673 9.83398 21.434 9.83398 19.3007V13.7007C9.83398 12.6751 10.2414 11.6916 10.9665 10.9665C11.6916 10.2414 12.6751 9.83398 13.7007 9.83398ZM13.5673 11.1673C12.9308 11.1673 12.3203 11.4202 11.8703 11.8703C11.4202 12.3203 11.1673 12.9308 11.1673 13.5673V19.434C11.1673 20.7607 12.2407 21.834 13.5673 21.834H19.434C20.0705 21.834 20.681 21.5811 21.131 21.131C21.5811 20.681 21.834 20.0705 21.834 19.434V13.5673C21.834 12.2407 20.7607 11.1673 19.434 11.1673H13.5673ZM20.0007 12.1673C20.2217 12.1673 20.4336 12.2551 20.5899 12.4114C20.7462 12.5677 20.834 12.7796 20.834 13.0007C20.834 13.2217 20.7462 13.4336 20.5899 13.5899C20.4336 13.7462 20.2217 13.834 20.0007 13.834C19.7796 13.834 19.5677 13.7462 19.4114 13.5899C19.2551 13.4336 19.1673 13.2217 19.1673 13.0007C19.1673 12.7796 19.2551 12.5677 19.4114 12.4114C19.5677 12.2551 19.7796 12.1673 20.0007 12.1673ZM16.5007 13.1673C17.3847 13.1673 18.2326 13.5185 18.8577 14.1436C19.4828 14.7687 19.834 15.6166 19.834 16.5007C19.834 17.3847 19.4828 18.2326 18.8577 18.8577C18.2326 19.4828 17.3847 19.834 16.5007 19.834C15.6166 19.834 14.7687 19.4828 14.1436 18.8577C13.5185 18.2326 13.1673 17.3847 13.1673 16.5007C13.1673 15.6166 13.5185 14.7687 14.1436 14.1436C14.7687 13.5185 15.6166 13.1673 16.5007 13.1673ZM16.5007 14.5007C15.9702 14.5007 15.4615 14.7114 15.0864 15.0864C14.7114 15.4615 14.5007 15.9702 14.5007 16.5007C14.5007 17.0311 14.7114 17.5398 15.0864 17.9149C15.4615 18.2899 15.9702 18.5007 16.5007 18.5007C17.0311 18.5007 17.5398 18.2899 17.9149 17.9149C18.2899 17.5398 18.5007 17.0311 18.5007 16.5007C18.5007 15.9702 18.2899 15.4615 17.9149 15.0864C17.5398 14.7114 17.0311 14.5007 16.5007 14.5007Z" fill="white" fill-opacity="0.4"/>
</svg>
