<svg width="1201" height="361" viewBox="0 0 1201 361" fill="none" xmlns="http://www.w3.org/2000/svg">
<rect x="0.5" y="0.5" width="1200" height="360" rx="10" fill="white" fill-opacity="0.07"/>
<path d="M167.161 242.333C167.161 239.47 167.611 237.78 167.611 234.708C167.611 229.931 165.839 228.395 161.915 228.395H159.033V231.775H159.919C161.915 231.775 162.351 232.431 162.351 234.861C162.351 237.138 162.126 239.414 162.126 242.054C162.126 245.433 163.237 246.746 165.445 247.263V247.486C163.223 248.003 162.126 249.316 162.126 252.695C162.126 255.335 162.351 257.471 162.351 259.887C162.351 262.387 161.831 263.044 159.919 263.044V263.114H159.033V266.633H161.915C165.825 266.633 167.611 265.097 167.611 260.32C167.611 257.164 167.161 255.544 167.161 252.695C167.161 251.159 168.117 249.539 171 249.399V245.587C168.117 245.489 167.161 243.869 167.161 242.333ZM152.311 246.802C150.089 245.922 148.022 245.405 148.022 243.939C148.022 242.836 148.908 242.179 150.539 242.179C152.17 242.179 153.647 242.836 155.264 244.009L158.217 240.126C156.375 238.73 153.858 237.263 150.455 237.263C145.434 237.263 142.031 240.126 142.031 244.162C142.031 247.751 145.209 249.595 147.867 250.614C150.159 251.494 152.381 252.234 152.381 253.701C152.381 254.804 151.495 255.53 149.498 255.53C147.656 255.53 145.8 254.79 143.803 253.254L140.85 257.513C143.072 259.343 146.461 260.6 149.273 260.6C155.18 260.6 158.358 257.513 158.358 253.477C158.358 249.441 155.194 247.751 152.311 246.802ZM101.84 255.097C101.32 255.097 100.659 254.65 100.659 253.268V228.381H90.1686C86.1749 228.381 84.403 229.917 84.403 234.694C84.403 237.85 84.853 239.61 84.853 242.319C84.853 243.855 83.8967 245.475 81.0139 245.615V249.427C83.8967 249.497 84.853 251.117 84.853 252.653C84.853 255.363 84.403 256.983 84.403 260.139C84.403 264.915 86.1749 266.451 90.0983 266.451H92.9811V263.072H92.0952C90.253 263.072 89.6624 262.331 89.6624 259.915C89.6624 257.499 89.8874 255.432 89.8874 252.723C89.8874 249.344 88.7764 248.031 86.5686 247.514V247.291C88.7905 246.774 89.8874 245.461 89.8874 242.081C89.8874 239.442 89.6624 237.305 89.6624 234.889C89.6624 232.473 90.1827 231.803 92.0952 231.803H94.078V252.863C94.078 257.346 95.6249 260.279 100.139 260.279C101.545 260.279 102.656 260.055 103.458 259.762L102.712 254.986C102.276 255.097 102.065 255.097 101.84 255.097ZM134.423 246.802C132.131 245.922 130.064 245.405 130.064 243.939C130.064 242.836 130.95 242.179 132.581 242.179C134.212 242.179 135.689 242.836 137.306 244.009L140.259 240.126C138.417 238.73 135.9 237.263 132.497 237.263C127.476 237.263 124.073 240.126 124.073 244.162C124.073 247.751 127.251 249.595 129.909 250.614C132.201 251.494 134.423 252.234 134.423 253.701C134.423 254.804 133.537 255.53 131.54 255.53C129.698 255.53 127.842 254.79 125.845 253.254L122.962 257.513C125.184 259.343 128.573 260.6 131.386 260.6C137.292 260.6 140.47 257.513 140.47 253.477C140.484 249.441 137.306 247.751 134.423 246.802ZM112.626 237.194C107.226 237.194 102.065 241.676 102.206 248.715C102.206 255.977 107.015 260.237 113.358 260.237C116.015 260.237 118.969 259.287 121.261 257.737L119.039 253.854C117.408 254.804 115.861 255.251 114.23 255.251C111.276 255.251 108.984 253.854 108.394 250.475H121.781C121.851 249.958 122.006 248.939 122.006 247.765C122.09 241.816 118.828 237.194 112.626 237.194ZM108.408 246.439C108.858 243.506 110.63 242.109 112.697 242.109C115.355 242.109 116.395 243.939 116.395 246.439H108.408Z" fill="white"/>
<g clip-path="url(#clip0_1_157)">
<path fill-rule="evenodd" clip-rule="evenodd" d="M425.271 237.289L429.831 237.313C429.831 237.313 421.353 248.478 420.66 249.388C420.436 249.683 420.094 250.001 419.921 250.394C419.483 251.385 419.033 253.557 419.033 253.557L414.861 253.577C414.861 253.577 415.51 251.313 415.483 250.107C415.46 249.053 414.906 248.001 414.596 246.944C414.282 245.875 413.856 243.782 413.856 243.782H418.146L418.738 246.082L425.271 237.289Z" fill="white"/>
<path fill-rule="evenodd" clip-rule="evenodd" d="M416.636 239.644C417.477 240.137 417.994 242.856 417.994 242.856C417.994 242.856 413.59 242.92 411.194 242.92H409.123L406.609 253.557H402.763C402.763 253.557 405.156 241.997 405.721 239.901C405.904 239.222 406.976 239.339 408.785 239.339H411.673C413.539 239.339 415.719 239.107 416.636 239.644ZM398.732 244.824C398.732 244.824 398.852 244.141 398.326 243.351C397.876 242.677 397.46 242.52 396.277 242.484C392.936 242.382 393.001 244.788 393.001 244.788L398.732 244.824ZM402.356 242.068C402.846 243.785 401.912 247.818 401.912 247.818C401.912 247.818 397.038 247.739 394.369 247.818C393.539 247.843 392.545 247.731 392.298 248.106C391.95 248.632 392.425 249.442 392.828 249.784C393.291 250.177 394.193 250.222 394.517 250.262C396.684 250.53 401.219 250.331 401.219 250.331L400.433 253.712C400.433 253.712 394.024 254.024 390.819 253.281C390.186 253.134 389.593 252.838 389.192 252.418C389.082 252.304 388.987 252.147 388.884 252.012C388.801 251.904 388.56 251.549 388.452 251.268C387.72 249.372 388.538 245.74 389.34 243.793C389.433 243.568 389.55 243.282 389.673 243.039C389.826 242.736 389.956 242.393 390.079 242.212C390.162 242.087 390.264 242.007 390.35 241.889C390.449 241.749 390.564 241.614 390.671 241.494C390.967 241.16 391.303 240.924 391.706 240.631C393.042 239.659 395.459 238.905 398.362 239.194C399.456 239.303 401.107 239.682 401.912 240.775C402.128 241.067 402.235 241.646 402.356 242.068ZM384.717 239.326L388.446 239.304C388.446 239.304 386.368 248.885 385.309 253.557H381.019C378.021 253.557 375.352 253.918 374.216 251.832C373.114 249.806 374.165 246.476 374.659 244.213C375.008 242.612 375.744 239.339 375.744 239.339L379.607 239.304C379.607 239.304 378.516 244.4 378.061 246.944C377.899 247.856 377.563 248.714 377.913 249.388C378.246 250.029 378.712 250.075 380.132 250.107C380.582 250.117 382.055 250.107 382.055 250.107L384.717 239.326ZM367.264 246.226C367.654 244.877 368.224 243.415 368.151 242.201C368.073 240.901 366.952 239.718 366.228 239.47C364.05 238.722 362.01 239.767 361.199 240.619C360.151 241.723 359.795 243.013 359.424 244.788C359.148 246.106 358.921 247.498 359.424 248.526C360.314 250.343 363.091 249.946 366.08 249.963C366.524 248.808 366.891 247.51 367.264 246.226ZM372.441 240.907C372.866 243.917 371.232 247.239 370.107 250.128C371.254 250.229 372.26 250.113 372.333 250.196C372.408 250.304 371.563 253.645 371.269 253.653C370.358 253.676 367.339 253.701 366.08 253.701C361.973 253.701 358.13 253.961 356.17 251.976C355.375 251.169 354.824 249.786 354.691 248.813C354.469 247.189 354.747 245.4 355.135 243.926C355.485 242.594 355.935 241.338 356.614 240.188C358.34 237.26 361.343 235.087 366.376 235.588C367.352 235.686 368.754 236.101 369.63 236.594C369.691 236.629 369.903 236.793 369.951 236.822C371.135 237.553 372.213 239.3 372.441 240.907ZM354.266 239.343C354.018 240.443 353.77 241.689 353.508 242.776H349.366C349.687 241.571 349.933 240.374 350.254 239.326C351.579 239.326 352.811 239.343 354.267 239.343M349.218 243.782H353.212C352.69 246.591 351.656 251.122 350.845 254.276C350.338 256.249 349.999 257.69 348.627 258.732C348.504 258.825 348.433 258.781 348.331 258.876C348.078 259.11 346.908 259.382 346.26 259.451C345.207 259.561 344.016 259.465 342.722 259.439C343.061 258.236 343.444 256.791 343.746 255.713C346.901 256.084 346.98 253.186 347.591 250.394C347.945 248.782 349.016 244.429 349.218 243.782Z" fill="white"/>
<path fill-rule="evenodd" clip-rule="evenodd" d="M339.9 251.113L339.814 251.329C338.356 254.089 335.771 255.782 332.085 255.857C330.362 255.891 328.72 255.462 327.648 254.994C325.333 253.984 323.386 252.11 322.323 250.107C320.798 247.236 320.523 243.243 323.694 240.26C323.743 240.26 323.31 240.907 323.359 240.907L323.271 241.183C320.986 248.136 328.027 254.095 334.871 253.413C336.515 253.249 338.613 252.374 339.9 251.113Z" fill="white"/>
<path fill-rule="evenodd" clip-rule="evenodd" d="M335.758 248.238C337.48 248.25 339.278 247.468 340.343 246.37C339.412 248.668 336.714 250.146 333.096 249.676C330.066 249.282 327.181 246.319 326.883 243.351C326.666 241.19 327.441 239.901 328.717 238.337C328.274 239.155 328.108 239.786 328.067 240.188C327.582 244.862 331.908 248.214 335.758 248.238Z" fill="white"/>
<path fill-rule="evenodd" clip-rule="evenodd" d="M340.17 242.434C339.903 243.03 338.362 244.157 337.681 244.298C334.986 244.856 333.26 243.614 332.356 242.201C332.222 241.99 331.973 241.413 331.929 241.266C331.578 240.108 331.739 238.355 332.785 237.448C332.47 238.311 332.424 239.313 332.59 239.964C332.69 240.358 332.997 241.045 333.303 241.478C333.86 242.266 334.214 242.457 334.93 242.875C335.252 243.063 335.598 243.214 335.748 243.256C336.427 243.45 337.86 243.962 340.17 242.434Z" fill="white"/>
</g>
<path fill-rule="evenodd" clip-rule="evenodd" d="M593.676 243.21C593.676 243.595 593.791 243.849 593.855 244.095C594.275 245.699 595.176 247.076 596.245 248.331C597.769 250.121 599.634 251.561 601.545 252.916C603.202 254.09 604.894 255.239 606.558 256.405C606.843 256.605 607.113 256.835 607.424 257.081C607.157 257.223 606.935 257.348 606.704 257.464C604.508 258.562 602.395 259.793 600.448 261.284C599.274 262.183 598.139 263.138 597.338 264.387C596.048 266.395 595.592 268.534 596.553 270.819C596.833 271.486 597.262 272.062 597.866 272.488C598.062 272.626 598.281 272.763 598.51 272.816C599.097 272.953 599.695 273.042 600.289 273.15L601.972 273.148C603.832 272.985 605.525 272.357 607.056 271.315C609.448 269.688 611.059 267.506 611.752 264.705C612.255 262.67 612.276 260.632 611.682 258.606C611.626 258.418 611.56 258.233 611.486 258.051C611.414 257.869 611.329 257.692 611.229 257.465L615.043 255.303L615.1 255.351C615.031 255.575 614.957 255.798 614.895 256.024C614.441 257.655 614.14 259.316 614.248 261.009C614.364 262.814 614.875 264.503 615.946 266.011C616.813 267.231 618.877 267.276 619.798 266.052C620.125 265.617 620.441 265.163 620.679 264.678C621.301 263.412 621.877 262.123 622.471 260.844L622.575 260.61C622.532 261.216 622.482 261.748 622.459 262.28C622.424 263.112 622.473 263.939 622.762 264.73C623.009 265.407 623.428 265.913 624.215 266.002C624.753 266.063 625.182 265.82 625.577 265.512C626.19 265.035 626.698 264.44 627.07 263.763C628.124 261.854 629.207 259.956 630.163 257.999C631.197 255.882 632.101 253.703 633.061 251.55L633.22 251.168C633.447 252.047 633.605 252.908 633.896 253.723C634.234 254.668 634.653 255.592 635.109 256.489C635.325 256.913 635.3 257.188 635.001 257.543C633.75 259.031 632.52 260.536 631.289 262.04C631.017 262.372 630.745 262.71 630.519 263.073C630.381 263.302 630.29 263.555 630.252 263.819C630.214 264.061 630.273 264.309 630.416 264.51C630.559 264.711 630.775 264.85 631.019 264.897C631.513 265.001 632.018 265.037 632.521 265.002C634.239 264.877 635.799 264.283 637.178 263.276C638.965 261.971 639.538 260.19 639.106 258.08C638.989 257.507 638.782 256.951 638.58 256.399C638.49 256.15 638.484 255.975 638.649 255.744C640.077 253.733 641.297 251.599 642.432 249.417C642.477 249.331 642.523 249.245 642.602 249.153C642.97 251.04 643.523 252.858 644.515 254.508C644.009 254.989 643.508 255.425 643.055 255.905C642.057 256.963 641.192 258.111 640.74 259.512C640.546 260.115 640.397 260.729 640.483 261.374C640.618 262.375 641.45 263.026 642.449 262.798C644.586 262.31 646.432 261.317 647.78 259.557C648.688 258.373 648.77 257.052 648.391 255.668C648.286 255.291 648.163 254.921 648.029 254.49C648.557 254.328 649.071 254.135 649.603 254.015C652.365 253.394 655.097 253.502 657.758 254.485C659.312 255.059 660.567 256.02 661.311 257.532C662.221 259.38 661.718 261.133 659.951 262.301C659.787 262.41 659.598 262.496 659.462 262.632C659.418 262.682 659.385 262.74 659.366 262.803C659.346 262.867 659.34 262.933 659.348 262.998C659.359 263.066 659.54 263.15 659.643 263.149C660.224 263.144 660.695 262.844 661.147 262.536C662.28 261.763 663.106 260.723 663.284 259.355L663.319 259.252L663.277 258.36C663.259 258.309 663.289 258.258 663.286 258.219C663.045 256.226 661.965 254.68 660.394 253.468C658.575 252.065 656.426 251.488 654.154 251.396C652.312 251.318 650.471 251.598 648.738 252.218C648.24 252.396 647.747 252.607 647.247 252.805C647.18 252.685 647.108 252.571 647.048 252.452C646.535 251.415 645.912 250.424 645.775 249.235C645.677 248.391 645.557 247.548 645.761 246.713C645.957 245.909 646.212 245.119 646.452 244.327C646.576 243.919 646.489 243.69 646.094 243.507C645.956 243.439 645.809 243.392 645.658 243.366C644.687 243.227 643.73 243.306 642.789 243.576C642.456 243.671 642.215 243.855 642.141 244.218C642.099 244.427 642.013 244.626 641.953 244.832C641.707 245.687 641.533 246.558 641.136 247.372C640.141 249.415 639.005 251.38 637.842 253.331C637.716 253.542 637.584 253.749 637.425 254.004C637.017 253.162 636.581 252.406 636.449 251.52C636.3 250.518 636.182 249.518 636.435 248.524C636.623 247.782 636.869 247.054 637.095 246.323C637.202 245.975 637.153 245.792 636.834 245.609C636.672 245.516 636.49 245.434 636.308 245.408C635.312 245.258 634.295 245.34 633.338 245.647C633.037 245.743 632.879 245.935 632.787 246.242C632.516 247.145 632.285 248.07 631.905 248.93C630.367 252.408 628.783 255.868 627.202 259.327C626.872 260.05 626.485 260.747 626.113 261.45C626.019 261.629 625.881 261.785 625.764 261.953C625.669 261.843 625.633 261.767 625.633 261.692C625.636 261.247 625.582 260.79 625.668 260.36C625.932 259.06 626.224 257.765 626.544 256.478C626.804 255.413 627.108 254.359 627.397 253.302C627.494 252.948 627.495 252.617 627.238 252.32C626.804 251.821 625.899 251.712 625.362 252.096L625.125 252.228L625.171 251.851C625.284 251.042 625.307 250.236 625.081 249.439C624.801 248.446 624.082 247.875 623.037 247.906C622.55 247.921 622.038 248.003 621.587 248.178C619.691 248.911 618.233 250.209 616.991 251.77C616.876 251.915 616.734 252.036 616.571 252.128C614.967 253.005 613.357 253.871 611.748 254.741L609.957 255.708C609.476 255.256 609.04 254.788 608.545 254.39C607.032 253.174 605.495 251.988 603.972 250.785C602.622 249.719 601.314 248.609 600.313 247.198C599.569 246.148 599.089 244.999 599.043 243.7C598.985 242.046 599.46 240.534 600.315 239.127C601.407 237.327 602.898 235.882 604.536 234.574C606.27 233.19 608.145 232.015 610.088 230.943C612.806 229.443 615.602 228.115 618.6 227.238C621.675 226.339 624.794 225.825 628.011 226.183C629.275 226.324 630.504 226.61 631.631 227.22C632.495 227.686 633.203 228.297 633.533 229.252C633.858 230.191 633.848 231.144 633.623 232.098C633.165 234.03 632.092 235.624 630.741 237.047C628.526 239.381 625.823 240.969 622.781 242.019C621.031 242.623 619.211 243.006 617.364 243.158C615.85 243.283 614.368 243.151 612.935 242.632C611.986 242.288 611.159 241.762 610.495 240.998C610.376 240.861 610.224 240.713 610.003 240.841C609.786 240.967 609.748 241.17 609.82 241.377C609.942 241.719 610.054 242.076 610.243 242.382C610.718 243.15 611.412 243.707 612.175 244.185C613.641 245.105 615.28 245.414 616.979 245.485C619.557 245.595 622.072 245.216 624.552 244.534C628.093 243.56 631.171 241.841 633.64 239.128C635.696 236.87 637.164 234.321 637.479 231.243C637.632 229.741 637.469 228.269 636.755 226.899C635.982 225.414 634.751 224.31 633.28 223.549C631.138 222.442 628.826 221.797 626.44 221.797H624.049C621.159 221.797 618.365 222.613 615.65 223.587C613.594 224.325 611.578 225.196 609.621 226.159C605.36 228.259 601.391 230.79 598.131 234.271C596.507 236.005 595.132 237.919 594.341 240.172C594.102 240.845 593.896 241.528 593.724 242.22M609.166 261.915C608.982 264.354 607.861 266.331 606.029 267.932C604.998 268.832 603.816 269.473 602.439 269.698C601.94 269.78 601.429 269.799 600.945 269.595C600.254 269.304 600.099 268.7 600.086 268.056C600.066 267.031 600.43 266.103 600.93 265.22C601.582 264.07 602.538 263.193 603.56 262.373C605.168 261.082 606.913 259.99 608.7 258.958L608.835 258.903C609.111 259.91 609.243 260.903 609.166 261.915ZM623.121 251.317C622.991 252.096 622.828 252.875 622.597 253.63C621.799 256.242 620.775 258.774 619.667 261.271C619.462 261.734 619.165 262.155 618.906 262.593C618.862 262.661 618.809 262.722 618.749 262.776C618.428 263.088 618.124 263.072 617.962 262.663C617.773 262.189 617.658 261.68 617.558 261.178C617.491 260.84 617.507 260.486 617.486 260.14C617.507 257.683 618.268 255.449 619.558 253.37C620.09 252.513 620.669 251.696 621.554 251.153C621.829 250.984 622.127 250.854 622.438 250.767C622.91 250.636 623.199 250.851 623.121 251.317ZM632.642 263.276L636.064 259.337C636.206 260.8 633.684 263.72 632.642 263.276ZM643.571 260.626C643.329 260.762 643.066 260.861 642.818 260.987C642.591 261.103 642.516 260.986 642.509 260.793C642.506 260.66 642.523 260.527 642.561 260.399C643.023 258.792 643.873 257.421 645.138 256.305L645.227 256.26C645.829 257.92 645.133 259.743 643.571 260.626Z" fill="white"/>
<path d="M879.361 236.568H871.625V244.976H879.361C881.715 244.976 883.629 243.089 883.629 240.773C883.629 238.455 881.716 236.568 879.361 236.568ZM879.361 250.023H871.625V258.431H879.361C881.715 258.431 883.629 256.544 883.629 254.226C883.629 251.908 881.716 250.023 879.361 250.023Z" fill="white"/>
<path d="M897.752 217.5H857.752C852.229 217.5 847.752 221.976 847.752 227.5V267.5C847.752 273.023 852.229 277.5 857.752 277.5H897.752C903.275 277.5 907.752 273.023 907.752 267.5V227.5C907.752 221.976 903.275 217.5 897.752 217.5ZM888.752 254.227C888.752 259.329 884.541 263.477 879.361 263.477L866.752 263.5V231.5L879.361 231.523C884.541 231.523 888.752 235.671 888.752 240.773C888.752 243.421 887.615 245.813 885.796 247.5C887.615 249.188 888.752 251.578 888.752 254.227Z" fill="white"/>
<g clip-path="url(#clip1_1_157)">
<path d="M149.198 92.8987C148.432 92.6404 147.659 92.4011 146.881 92.1811C147.012 91.6561 147.132 91.1375 147.239 90.6279C148.993 82.2608 147.846 75.5201 143.929 73.3007C140.173 71.1731 134.03 73.3916 127.826 78.6961C127.215 79.2198 126.617 79.7586 126.033 80.312C125.642 79.944 125.245 79.5831 124.84 79.2296C118.338 73.558 111.821 71.1676 107.908 73.3933C104.155 75.5275 103.044 81.8643 104.624 89.794C104.781 90.5794 104.958 91.3607 105.156 92.1372C104.233 92.3947 103.343 92.6688 102.491 92.9606C94.8682 95.5718 90 99.6637 90 103.908C90 108.292 95.2262 112.689 103.166 115.355C103.81 115.57 104.459 115.77 105.112 115.953C104.9 116.79 104.712 117.632 104.547 118.478C103.041 126.27 104.217 132.457 107.96 134.578C111.825 136.768 118.313 134.517 124.63 129.092C125.143 128.651 125.644 128.197 126.133 127.732C126.765 128.331 127.414 128.913 128.079 129.476C134.198 134.649 140.242 136.738 143.981 134.612C147.843 132.415 149.098 125.769 147.468 117.683C147.34 117.049 147.196 116.419 147.037 115.792C147.492 115.659 147.939 115.523 148.375 115.381C156.63 112.694 162 108.351 162 103.908C162 99.6483 156.975 95.5287 149.198 92.8987ZM147.408 112.513C147.014 112.641 146.611 112.764 146.199 112.884C145.288 110.05 144.058 107.037 142.553 103.923C143.989 100.883 145.171 97.9083 146.057 95.0926C146.794 95.3021 147.508 95.5229 148.197 95.7558C154.86 98.0094 158.924 101.341 158.924 103.908C158.924 106.643 154.535 110.192 147.408 112.513ZM144.451 118.269C145.172 121.845 145.274 125.078 144.797 127.605C144.368 129.876 143.506 131.39 142.44 131.997C140.171 133.287 135.318 131.61 130.085 127.186C129.467 126.662 128.863 126.121 128.275 125.564C130.304 123.384 132.331 120.85 134.31 118.035C137.791 117.732 141.079 117.235 144.061 116.558C144.205 117.126 144.335 117.696 144.451 118.269ZM114.546 131.774C112.33 132.543 110.564 132.565 109.497 131.96C107.225 130.674 106.281 125.706 107.569 119.042C107.722 118.255 107.897 117.472 108.095 116.694C111.044 117.335 114.308 117.796 117.797 118.074C119.79 120.828 121.876 123.359 123.978 125.576C123.531 126 123.074 126.414 122.606 126.817C119.813 129.216 117.014 130.918 114.546 131.774ZM104.161 112.496C100.65 111.317 97.7507 109.785 95.7634 108.113C93.9774 106.61 93.076 105.118 93.076 103.908C93.076 101.332 96.9846 98.047 103.504 95.8141C104.295 95.5433 105.123 95.2877 105.982 95.0479C106.883 97.9271 108.065 100.938 109.491 103.982C108.046 107.071 106.848 110.129 105.938 113.043C105.341 112.875 104.749 112.692 104.161 112.496ZM107.642 89.2135C106.289 82.4197 107.188 77.2949 109.449 76.0086C111.858 74.6386 117.184 76.5919 122.798 81.4893C123.164 81.8094 123.524 82.136 123.879 82.4689C121.787 84.6758 119.72 87.1883 117.745 89.9261C114.359 90.2345 111.117 90.7296 108.137 91.393C107.954 90.6708 107.789 89.9439 107.642 89.2135ZM138.7 96.748C137.996 95.5535 137.266 94.374 136.51 93.2104C138.808 93.4958 141.009 93.8746 143.076 94.3377C142.455 96.2918 141.682 98.3347 140.771 100.429C140.106 99.1887 139.415 97.9614 138.7 96.748ZM126.035 84.6286C127.453 86.1386 128.874 87.8244 130.272 89.6536C127.437 89.5221 124.597 89.5215 121.762 89.652C123.161 87.8396 124.594 86.156 126.035 84.6286ZM113.288 96.7688C112.582 97.9724 111.904 99.192 111.255 100.427C110.36 98.3396 109.594 96.2874 108.968 94.3057C111.022 93.8542 113.213 93.485 115.495 93.2048C114.731 94.3756 113.995 95.5641 113.288 96.7688ZM115.561 114.827C113.203 114.568 110.979 114.218 108.925 113.778C109.561 111.761 110.344 109.666 111.259 107.534C111.91 108.769 112.591 109.99 113.3 111.194C114.03 112.432 114.785 113.644 115.561 114.827ZM126.12 123.401C124.662 121.855 123.207 120.146 121.787 118.307C123.166 118.36 124.572 118.387 126 118.387C127.468 118.387 128.918 118.355 130.346 118.293C128.944 120.164 127.529 121.876 126.12 123.401ZM140.8 107.425C141.763 109.58 142.574 111.665 143.218 113.648C141.13 114.116 138.876 114.492 136.502 114.772C137.263 113.587 138 112.387 138.712 111.173C139.436 109.939 140.133 108.689 140.8 107.425ZM136.048 109.663C134.957 111.525 133.805 113.351 132.594 115.139C130.399 115.291 128.2 115.367 126 115.366C123.759 115.366 121.58 115.297 119.481 115.164C118.238 113.38 117.064 111.551 115.962 109.68C114.865 107.819 113.84 105.918 112.89 103.98C113.838 102.043 114.86 100.14 115.953 98.278L115.953 98.2783C117.046 96.4154 118.21 94.594 119.444 92.818C121.585 92.6588 123.781 92.576 126 92.576C128.229 92.576 130.428 92.6597 132.568 92.8199C133.79 94.5933 134.947 96.4084 136.038 98.262C137.135 100.12 138.17 102.013 139.141 103.938C138.18 105.882 137.148 107.791 136.048 109.663ZM142.393 75.9185C144.804 77.2846 145.741 82.7935 144.226 90.0178C144.13 90.4787 144.021 90.9482 143.903 91.4243C140.916 90.7467 137.672 90.243 134.276 89.93C132.297 87.1621 130.247 84.6457 128.19 82.4672C128.729 81.9564 129.281 81.4589 129.846 80.9751C135.161 76.4305 140.129 74.6361 142.393 75.9185ZM126 97.5916C129.551 97.5916 132.429 100.42 132.429 103.908C132.429 107.397 129.551 110.225 126 110.225C122.449 110.225 119.571 107.397 119.571 103.908C119.571 100.42 122.449 97.5916 126 97.5916Z" fill="white"/>
</g>
<path d="M375.514 64.8354L339.671 77.9079L345.138 126.379L375.514 143.585L405.891 126.379L411.358 77.9079L375.514 64.8354Z" fill="white" fill-opacity="0.15"/>
<path d="M375.514 64.8354V73.5767V73.5373V143.585L405.891 126.379L411.358 77.9079L375.514 64.8354Z" fill="white" fill-opacity="0.23"/>
<path d="M375.514 73.5373L353.107 124.922H361.462L365.966 113.424H384.985L389.49 124.922H397.844L375.514 73.5373ZM382.059 106.337H368.969L375.514 90.2323L382.059 106.337Z" fill="white"/>
<path d="M594.852 136.063L588.532 64.3979H657.973L651.645 136.052L623.21 144.023L594.852 136.063Z" fill="white" fill-opacity="0.15"/>
<path d="M623.252 137.932L646.23 131.491L651.636 70.2589H623.252V137.932Z" fill="white" fill-opacity="0.23"/>
<path d="M623.252 96.8366H611.749L610.956 87.8361H623.252V79.0461H601.455L601.664 81.4064L603.798 105.627H623.252V96.8366ZM623.252 119.663L623.213 119.675L613.532 117.033L612.914 110.023H604.186L605.404 123.821L623.213 128.82L623.252 128.809V119.663Z" fill="white"/>
<path d="M623.221 96.8366V105.627H633.926L632.919 117.027L623.221 119.672V128.817L641.044 123.821L641.174 122.337L643.215 99.1969L643.429 96.8366H623.221ZM623.221 79.0461V87.8361H644.22L644.394 85.8626L644.79 81.4064L644.999 79.0461H623.221Z" fill="white"/>
<g clip-path="url(#clip2_1_157)">
<path d="M842.865 134.249L836.752 66.3374L909.752 66.4739L903.289 134.249L873.528 142.084L842.865 134.249Z" fill="white" fill-opacity="0.15"/>
<path d="M873.528 135.525V72.8051L903.59 72.8961L898.229 129.011L873.528 135.525Z" fill="white" fill-opacity="0.23"/>
<path d="M870.309 80.2523H862.361V121.997L856.18 120.926V115.307L848.821 114.237V126.814L870.309 131.898V80.2523ZM876.271 80.2523H898.272L896.801 88.2533H884.67V101.383H896.801L895.329 127.884L876.271 131.898V123.602L889.147 119.589L889.891 108.617L876.271 110.41V80.2523Z" fill="white"/>
</g>
<path d="M1065.77 137.463L1059.11 62.6479H1132.4L1125.72 137.452L1095.71 145.773L1065.77 137.463Z" fill="white" fill-opacity="0.15"/>
<path d="M1095.75 139.414L1120.01 132.69L1125.71 68.7665H1095.75V139.414Z" fill="white" fill-opacity="0.23"/>
<path d="M1095.75 95.8712H1107.89L1108.73 86.4751H1095.75V77.2987H1118.76L1118.54 79.7598L1116.29 105.048H1095.75V95.8712Z" fill="white"/>
<path d="M1095.81 119.701L1095.77 119.713L1085.55 116.952L1084.9 109.634H1075.68L1076.97 124.042L1095.76 129.261L1095.81 129.249V119.701Z" fill="white"/>
<path d="M1107.11 104.659L1106.01 116.946L1095.78 119.707V129.255L1114.59 124.042L1114.73 122.492L1116.32 104.659H1107.11Z" fill="white"/>
<path d="M1095.78 77.2987V86.4751H1073.62L1073.44 84.4119L1073.02 79.7598L1072.8 77.2987H1095.78ZM1095.75 95.8712V105.048H1085.66L1085.48 102.984L1085.06 98.3323L1084.84 95.8712H1095.75Z" fill="white"/>
<path d="M248.252 59.1309V304.29" stroke="black" stroke-opacity="0.2"/>
<path d="M498.252 59.1309V304.29" stroke="black" stroke-opacity="0.2"/>
<path d="M748.252 59.1309V304.29" stroke="black" stroke-opacity="0.2"/>
<path d="M998.252 59.1309V304.29" stroke="black" stroke-opacity="0.2"/>
<path d="M57.7477 182.838H1141.76" stroke="black" stroke-opacity="0.2"/>
<defs>
<clipPath id="clip0_1_157">
<rect width="109" height="24" fill="white" transform="translate(321.014 235.5)"/>
</clipPath>
<clipPath id="clip1_1_157">
<rect width="72" height="63" fill="white" transform="translate(90 72.5)"/>
</clipPath>
<clipPath id="clip2_1_157">
<rect width="73" height="76" fill="white" transform="translate(836.752 66.2104)"/>
</clipPath>
</defs>
</svg>
