<svg width="33" height="33" viewBox="0 0 33 33" fill="none" xmlns="http://www.w3.org/2000/svg">
<rect width="33" height="33" rx="16.5" fill="#FFFBFB" fill-opacity="0.1"/>
<path d="M23.474 12.4993C22.9607 12.7327 22.4073 12.886 21.834 12.9593C22.4207 12.606 22.874 12.046 23.0873 11.3727C22.534 11.706 21.9207 11.9393 21.274 12.0727C20.7473 11.4993 20.0073 11.166 19.1673 11.166C17.6007 11.166 16.3207 12.446 16.3207 14.026C16.3207 14.2527 16.3473 14.4727 16.394 14.6793C14.0207 14.5593 11.9073 13.4193 10.5007 11.6927C10.254 12.1127 10.114 12.606 10.114 13.126C10.114 14.1193 10.614 14.9993 11.3873 15.4993C10.914 15.4993 10.474 15.366 10.0873 15.166V15.186C10.0873 16.5727 11.074 17.7327 12.3807 17.9927C11.9612 18.1075 11.5207 18.1235 11.094 18.0393C11.2751 18.6077 11.6297 19.105 12.108 19.4613C12.5863 19.8177 13.1643 20.0151 13.7607 20.026C12.7498 20.8263 11.4967 21.2589 10.2073 21.2527C9.98068 21.2527 9.75401 21.2393 9.52734 21.2127C10.794 22.026 12.3007 22.4993 13.914 22.4993C19.1673 22.4993 22.054 18.1393 22.054 14.3593C22.054 14.2327 22.054 14.1127 22.0473 13.986C22.6073 13.586 23.0873 13.0793 23.474 12.4993Z" fill="white" fill-opacity="0.4"/>
</svg>
