<svg width="33" height="33" viewBox="0 0 33 33" fill="none" xmlns="http://www.w3.org/2000/svg">
<rect width="33" height="33" rx="16.5" fill="#FFFBFB" fill-opacity="0.1"/>
<path d="M21.2005 11.774C20.5893 11.1566 19.8613 10.6671 19.0589 10.3341C18.2566 10.001 17.3959 9.831 16.5272 9.83402C12.8872 9.83402 9.92052 12.8007 9.92052 16.4407C9.92052 17.6074 10.2272 18.7407 10.8005 19.7407L9.86719 23.1674L13.3672 22.2474C14.3339 22.774 15.4205 23.054 16.5272 23.054C20.1672 23.054 23.1339 20.0874 23.1339 16.4474C23.1339 14.6807 22.4472 13.0207 21.2005 11.774ZM16.5272 21.934C15.5405 21.934 14.5739 21.6674 13.7272 21.1674L13.5272 21.0474L11.4472 21.594L12.0005 19.5674L11.8672 19.3607C11.319 18.4853 11.0279 17.4735 11.0272 16.4407C11.0272 13.414 13.4939 10.9474 16.5205 10.9474C17.9872 10.9474 19.3672 11.5207 20.4005 12.5607C20.9122 13.07 21.3177 13.6758 21.5934 14.343C21.8692 15.0101 22.0099 15.7254 22.0072 16.4474C22.0205 19.474 19.5539 21.934 16.5272 21.934ZM19.5405 17.8274C19.3739 17.7474 18.5605 17.3474 18.4139 17.2874C18.2605 17.234 18.1539 17.2074 18.0405 17.3674C17.9272 17.534 17.6139 17.9074 17.5205 18.014C17.4272 18.1274 17.3272 18.1407 17.1605 18.054C16.9939 17.974 16.4605 17.794 15.8339 17.234C15.3405 16.794 15.0139 16.254 14.9139 16.0874C14.8205 15.9207 14.9005 15.834 14.9872 15.7474C15.0605 15.674 15.1539 15.554 15.2339 15.4607C15.3139 15.3674 15.3472 15.294 15.4005 15.1874C15.4539 15.074 15.4272 14.9807 15.3872 14.9007C15.3472 14.8207 15.0139 14.0074 14.8805 13.674C14.7472 13.354 14.6072 13.394 14.5072 13.3874H14.1872C14.0739 13.3874 13.9005 13.4274 13.7472 13.594C13.6005 13.7607 13.1739 14.1607 13.1739 14.974C13.1739 15.7874 13.7672 16.574 13.8472 16.6807C13.9272 16.794 15.0139 18.4607 16.6672 19.174C17.0605 19.3474 17.3672 19.4474 17.6072 19.5207C18.0005 19.6474 18.3605 19.6274 18.6472 19.5874C18.9672 19.5407 19.6272 19.1874 19.7605 18.8007C19.9005 18.414 19.9005 18.0874 19.8539 18.014C19.8072 17.9407 19.7072 17.9074 19.5405 17.8274Z" fill="white" fill-opacity="0.4"/>
</svg>
