<svg width="33" height="33" viewBox="0 0 33 33" fill="none" xmlns="http://www.w3.org/2000/svg">
<rect width="33" height="33" rx="16.5" fill="#FFFBFB" fill-opacity="0.1"/>
<g clip-path="url(#clip0_1_275)">
<path fill-rule="evenodd" clip-rule="evenodd" d="M21.3602 11.7687C21.5146 11.7037 21.6837 11.6813 21.8497 11.7038C22.0158 11.7263 22.1728 11.7929 22.3043 11.8967C22.4359 12.0004 22.5373 12.1375 22.5979 12.2938C22.6585 12.45 22.6761 12.6196 22.6489 12.785L21.2314 21.3831C21.0939 22.2125 20.1839 22.6881 19.4233 22.275C18.787 21.9294 17.842 21.3969 16.992 20.8412C16.567 20.5631 15.2652 19.6725 15.4252 19.0387C15.5627 18.4969 17.7502 16.4606 19.0002 15.25C19.4908 14.7744 19.267 14.5 18.6877 14.9375C17.2483 16.0237 14.9389 17.6756 14.1752 18.1406C13.5014 18.5506 13.1502 18.6206 12.7302 18.5506C11.9639 18.4231 11.2533 18.2256 10.6733 17.985C9.88954 17.66 9.92766 16.5825 10.6727 16.2687L21.3602 11.7687Z" fill="white" fill-opacity="0.4"/>
</g>
<defs>
<clipPath id="clip0_1_275">
<rect width="15" height="15" fill="white" transform="translate(9 9)"/>
</clipPath>
</defs>
</svg>
