<svg width="16" height="16" viewBox="0 0 16 16" fill="none" xmlns="http://www.w3.org/2000/svg">
<path d="M1.60001 2.39998C1.60001 2.1878 1.68429 1.98432 1.83432 1.83429C1.98435 1.68426 2.18783 1.59998 2.40001 1.59998H4.12241C4.31177 1.60006 4.49497 1.66732 4.6394 1.78978C4.78384 1.91225 4.88015 2.08197 4.91121 2.26878L5.50321 5.81678C5.53149 5.98575 5.50479 6.15934 5.42702 6.312C5.34925 6.46466 5.22452 6.58832 5.07121 6.66478L3.83281 7.28318C4.27689 8.3837 4.93827 9.3834 5.77743 10.2226C6.61658 11.0617 7.61629 11.7231 8.71681 12.1672L9.33601 10.9288C9.41242 10.7756 9.53595 10.651 9.68845 10.5732C9.84094 10.4955 10.0144 10.4687 10.1832 10.4968L13.7312 11.0888C13.918 11.1198 14.0877 11.2161 14.2102 11.3606C14.3327 11.505 14.3999 11.6882 14.4 11.8776V13.6C14.4 13.8121 14.3157 14.0156 14.1657 14.1657C14.0157 14.3157 13.8122 14.4 13.6 14.4H12C6.25601 14.4 1.60001 9.74397 1.60001 3.99998V2.39998Z" fill="#1F2A37"/>
</svg>
