<svg width="16" height="16" viewBox="0 0 16 16" fill="none" xmlns="http://www.w3.org/2000/svg">
<path fill-rule="evenodd" clip-rule="evenodd" d="M2.40001 2.40002C2.18783 2.40002 1.98435 2.48431 1.83432 2.63434C1.68429 2.78437 1.60001 2.98785 1.60001 3.20002C1.60001 3.4122 1.68429 3.61568 1.83432 3.76571C1.98435 3.91574 2.18783 4.00002 2.40001 4.00002V10.4C2.40001 10.8244 2.56858 11.2313 2.86864 11.5314C3.16869 11.8315 3.57566 12 4.00001 12H6.06881L5.03441 13.0344C4.958 13.1082 4.89705 13.1965 4.85512 13.2941C4.8132 13.3917 4.79113 13.4967 4.79021 13.6029C4.78928 13.7091 4.80952 13.8145 4.84975 13.9128C4.88997 14.0111 4.94938 14.1004 5.02449 14.1755C5.0996 14.2507 5.18893 14.3101 5.28724 14.3503C5.38556 14.3905 5.4909 14.4107 5.59713 14.4098C5.70335 14.4089 5.80833 14.3868 5.90593 14.3449C6.00353 14.303 6.09181 14.242 6.16561 14.1656L8.00001 12.3312L9.83441 14.1656C9.98529 14.3114 10.1874 14.392 10.3971 14.3902C10.6069 14.3883 10.8075 14.3042 10.9559 14.1559C11.1042 14.0076 11.1883 13.8069 11.1901 13.5971C11.192 13.3874 11.1113 13.1853 10.9656 13.0344L9.93121 12H12C12.4244 12 12.8313 11.8315 13.1314 11.5314C13.4314 11.2313 13.6 10.8244 13.6 10.4V4.00002C13.8122 4.00002 14.0157 3.91574 14.1657 3.76571C14.3157 3.61568 14.4 3.4122 14.4 3.20002C14.4 2.98785 14.3157 2.78437 14.1657 2.63434C14.0157 2.48431 13.8122 2.40002 13.6 2.40002H2.40001ZM11.7656 6.16562C11.9113 6.01474 11.992 5.81266 11.9901 5.6029C11.9883 5.39315 11.9042 5.1925 11.7559 5.04417C11.6075 4.89584 11.4069 4.81171 11.1971 4.80988C10.9874 4.80806 10.7853 4.8887 10.6344 5.03442L8.00001 7.66882L6.96561 6.63442C6.81558 6.48445 6.61214 6.4002 6.40001 6.4002C6.18787 6.4002 5.98443 6.48445 5.83441 6.63442L4.23441 8.23442C4.158 8.30822 4.09705 8.3965 4.05512 8.4941C4.0132 8.5917 3.99113 8.69668 3.99021 8.8029C3.98928 8.90913 4.00952 9.01447 4.04975 9.11279C4.08997 9.2111 4.14938 9.30043 4.22449 9.37554C4.2996 9.45065 4.38893 9.51006 4.48724 9.55028C4.58556 9.59051 4.6909 9.61075 4.79713 9.60982C4.90335 9.6089 5.00833 9.58683 5.10593 9.54491C5.20353 9.50298 5.29181 9.44203 5.36561 9.36562L6.40001 8.33122L7.43441 9.36562C7.58443 9.5156 7.78787 9.59985 8.00001 9.59985C8.21214 9.59985 8.41558 9.5156 8.56561 9.36562L11.7656 6.16562V6.16562Z" fill="#1F2A37"/>
</svg>
