<svg width="16" height="16" viewBox="0 0 16 16" fill="none" xmlns="http://www.w3.org/2000/svg">
<path fill-rule="evenodd" clip-rule="evenodd" d="M9.6 5.6C9.38783 5.6 9.18435 5.51571 9.03432 5.36569C8.88429 5.21566 8.8 5.01217 8.8 4.8C8.8 4.58783 8.88429 4.38434 9.03432 4.23431C9.18435 4.08429 9.38783 4 9.6 4H13.6C13.8122 4 14.0157 4.08429 14.1657 4.23431C14.3157 4.38434 14.4 4.58783 14.4 4.8V8.8C14.4 9.01217 14.3157 9.21566 14.1657 9.36569C14.0157 9.51571 13.8122 9.6 13.6 9.6C13.3878 9.6 13.1843 9.51571 13.0343 9.36569C12.8843 9.21566 12.8 9.01217 12.8 8.8V6.7312L9.3656 10.1656C9.21558 10.3156 9.01213 10.3998 8.8 10.3998C8.58787 10.3998 8.38442 10.3156 8.2344 10.1656L6.4 8.3312L2.9656 11.7656C2.81472 11.9113 2.61264 11.992 2.40288 11.9901C2.19312 11.9883 1.99247 11.9042 1.84415 11.7559C1.69582 11.6075 1.61169 11.4069 1.60986 11.1971C1.60804 10.9874 1.68868 10.7853 1.8344 10.6344L5.8344 6.6344C5.98442 6.48442 6.18787 6.40017 6.4 6.40017C6.61213 6.40017 6.81558 6.48442 6.9656 6.6344L8.8 8.4688L11.6688 5.6H9.6Z" fill="#1F2A37"/>
</svg>
