<svg width="52" height="37" viewBox="0 0 52 37" fill="none" xmlns="http://www.w3.org/2000/svg">
<path d="M8.45 5.2H4.55C3.46937 5.2 2.6 6.06938 2.6 7.15V15.6H0.65C0.2925 15.6 0 15.8925 0 16.25V20.15C0 20.5075 0.2925 20.8 0.65 20.8H2.6V29.25C2.6 30.3306 3.46937 31.2 4.55 31.2H8.45C9.53062 31.2 10.4 30.3306 10.4 29.25V7.15C10.4 6.06938 9.53062 5.2 8.45 5.2ZM51.35 15.6H49.4V7.15C49.4 6.06938 48.5306 5.2 47.45 5.2H43.55C42.4694 5.2 41.6 6.06938 41.6 7.15V29.25C41.6 30.3306 42.4694 31.2 43.55 31.2H47.45C48.5306 31.2 49.4 30.3306 49.4 29.25V20.8H51.35C51.7075 20.8 52 20.5075 52 20.15V16.25C52 15.8925 51.7075 15.6 51.35 15.6ZM37.05 0H33.15C32.0694 0 31.2 0.869375 31.2 1.95V15.6H20.8V1.95C20.8 0.869375 19.9306 0 18.85 0H14.95C13.8694 0 13 0.869375 13 1.95V34.45C13 35.5306 13.8694 36.4 14.95 36.4H18.85C19.9306 36.4 20.8 35.5306 20.8 34.45V20.8H31.2V34.45C31.2 35.5306 32.0694 36.4 33.15 36.4H37.05C38.1306 36.4 39 35.5306 39 34.45V1.95C39 0.869375 38.1306 0 37.05 0Z" fill="#FFFDFD"/>
</svg>
