<svg width="32" height="31" viewBox="0 0 32 31" fill="none" xmlns="http://www.w3.org/2000/svg">
<path d="M11.1989 24.2096C11.1989 24.3327 11.0574 24.4311 10.879 24.4311C10.6759 24.4495 10.5344 24.3511 10.5344 24.2096C10.5344 24.0866 10.6759 23.9881 10.8544 23.9881C11.0389 23.9697 11.1989 24.0681 11.1989 24.2096ZM9.28551 23.9328C9.24244 24.0558 9.36549 24.1973 9.55006 24.2342C9.71002 24.2957 9.89459 24.2342 9.93151 24.1112C9.96842 23.9881 9.85153 23.8466 9.66695 23.7912C9.50699 23.7482 9.32857 23.8097 9.28551 23.9328ZM12.0049 23.8282C11.8264 23.8712 11.7034 23.9881 11.7218 24.1296C11.7403 24.2527 11.9003 24.3327 12.0848 24.2896C12.2633 24.2465 12.3863 24.1296 12.3678 24.0066C12.3494 23.8897 12.1833 23.8097 12.0049 23.8282ZM16.0531 0.252319C7.51978 0.252319 0.992126 6.73075 0.992126 15.2641C0.992126 22.087 5.28647 27.9256 11.4204 29.9805C12.2079 30.122 12.4847 29.636 12.4847 29.2361C12.4847 28.8546 12.4663 26.7505 12.4663 25.4585C12.4663 25.4585 8.15963 26.3814 7.25523 23.6251C7.25523 23.6251 6.55386 21.8348 5.54487 21.3734C5.54487 21.3734 4.13598 20.4074 5.64331 20.4259C5.64331 20.4259 7.17525 20.549 8.01812 22.0132C9.36549 24.388 11.6234 23.7051 12.5032 23.2991C12.6447 22.3147 13.0446 21.6318 13.4876 21.2257C10.0484 20.8443 6.57847 20.3459 6.57847 14.4274C6.57847 12.7355 7.04605 11.8864 8.03043 10.8036C7.87047 10.4037 7.34751 8.75488 8.19039 6.62616C9.47623 6.22626 12.4355 8.2873 12.4355 8.2873C13.666 7.94277 14.9887 7.76435 16.2992 7.76435C17.6097 7.76435 18.9324 7.94277 20.1629 8.2873C20.1629 8.2873 23.1222 6.22011 24.408 6.62616C25.2509 8.76103 24.7279 10.4037 24.568 10.8036C25.5523 11.8926 26.1553 12.7416 26.1553 14.4274C26.1553 20.3644 22.5315 20.8381 19.0924 21.2257C19.6584 21.7117 20.1383 22.6346 20.1383 24.0804C20.1383 26.1538 20.1198 28.7193 20.1198 29.2238C20.1198 29.6237 20.4028 30.1097 21.1842 29.9682C27.3365 27.9256 31.5078 22.087 31.5078 15.2641C31.5078 6.73075 24.5864 0.252319 16.0531 0.252319ZM6.97222 21.4718C6.89224 21.5333 6.9107 21.6748 7.01529 21.7917C7.11372 21.8902 7.25523 21.9332 7.33521 21.8533C7.41519 21.7917 7.39673 21.6502 7.29214 21.5333C7.19371 21.4349 7.0522 21.3918 6.97222 21.4718ZM6.30777 20.9735C6.2647 21.0534 6.32622 21.1519 6.44927 21.2134C6.54771 21.2749 6.67075 21.2565 6.71382 21.1703C6.75689 21.0904 6.69536 20.9919 6.57232 20.9304C6.44927 20.8935 6.35083 20.9119 6.30777 20.9735ZM8.30113 23.1637C8.20269 23.2437 8.23961 23.4283 8.38111 23.5452C8.52262 23.6867 8.70103 23.7051 8.78101 23.6067C8.86099 23.5267 8.82408 23.3421 8.70103 23.2252C8.56568 23.0837 8.38111 23.0653 8.30113 23.1637ZM7.59976 22.2593C7.50132 22.3208 7.50132 22.4808 7.59976 22.6223C7.6982 22.7638 7.86431 22.8253 7.94429 22.7638C8.04273 22.6838 8.04273 22.5239 7.94429 22.3824C7.85816 22.2409 7.6982 22.1793 7.59976 22.2593Z" fill="white"/>
</svg>
