<svg width="31" height="31" viewBox="0 0 31 31" fill="none" xmlns="http://www.w3.org/2000/svg">
<path d="M10.5119 24.21C10.5119 24.333 10.3704 24.4315 10.192 24.4315C9.98899 24.4499 9.84749 24.3515 9.84749 24.21C9.84749 24.0869 9.98899 23.9885 10.1674 23.9885C10.352 23.97 10.5119 24.0685 10.5119 24.21ZM8.59856 23.9331C8.55549 24.0562 8.67854 24.1977 8.86311 24.2346C9.02307 24.2961 9.20764 24.2346 9.24456 24.1115C9.28147 23.9885 9.16457 23.847 8.98 23.7916C8.82004 23.7485 8.64162 23.8101 8.59856 23.9331ZM11.3179 23.8285C11.1395 23.8716 11.0164 23.9885 11.0349 24.13C11.0533 24.253 11.2133 24.333 11.3979 24.29C11.5763 24.2469 11.6993 24.13 11.6809 24.0069C11.6624 23.8901 11.4963 23.8101 11.3179 23.8285ZM15.3662 0.252686C6.83283 0.252686 0.305176 6.73112 0.305176 15.2644C0.305176 22.0874 4.59952 27.926 10.7334 29.9809C11.5209 30.1224 11.7978 29.6364 11.7978 29.2365C11.7978 28.855 11.7793 26.7509 11.7793 25.4589C11.7793 25.4589 7.47268 26.3818 6.56828 23.6255C6.56828 23.6255 5.86691 21.8352 4.85792 21.3737C4.85792 21.3737 3.44903 20.4078 4.95636 20.4263C4.95636 20.4263 6.4883 20.5493 7.33117 22.0136C8.67854 24.3884 10.9365 23.7055 11.8162 23.2994C11.9577 22.315 12.3576 21.6321 12.8006 21.2261C9.36145 20.8446 5.89152 20.3463 5.89152 14.4277C5.89152 12.7358 6.3591 11.8868 7.34348 10.804C7.18351 10.4041 6.66056 8.75525 7.50344 6.62653C8.78928 6.22663 11.7486 8.28767 11.7486 8.28767C12.979 7.94314 14.3018 7.76472 15.6122 7.76472C16.9227 7.76472 18.2455 7.94314 19.4759 8.28767C19.4759 8.28767 22.4352 6.22047 23.7211 6.62653C24.5639 8.7614 24.041 10.4041 23.881 10.804C24.8654 11.8929 25.4683 12.742 25.4683 14.4277C25.4683 20.3647 21.8446 20.8385 18.4054 21.2261C18.9714 21.7121 19.4513 22.635 19.4513 24.0808C19.4513 26.1541 19.4329 28.7197 19.4329 29.2241C19.4329 29.624 19.7159 30.1101 20.4972 29.9686C26.6496 27.926 30.8209 22.0874 30.8209 15.2644C30.8209 6.73112 23.8995 0.252686 15.3662 0.252686ZM6.28527 21.4722C6.20529 21.5337 6.22375 21.6752 6.32834 21.7921C6.42677 21.8905 6.56828 21.9336 6.64826 21.8536C6.72824 21.7921 6.70978 21.6506 6.60519 21.5337C6.50675 21.4353 6.36525 21.3922 6.28527 21.4722ZM5.62082 20.9738C5.57775 21.0538 5.63927 21.1523 5.76232 21.2138C5.86076 21.2753 5.9838 21.2568 6.02687 21.1707C6.06994 21.0907 6.00841 20.9923 5.88537 20.9308C5.76232 20.8939 5.66388 20.9123 5.62082 20.9738ZM7.61418 23.1641C7.51574 23.2441 7.55266 23.4286 7.69416 23.5455C7.83566 23.687 8.01408 23.7055 8.09406 23.607C8.17404 23.5271 8.13713 23.3425 8.01408 23.2256C7.87873 23.0841 7.69416 23.0656 7.61418 23.1641ZM6.91281 22.2597C6.81437 22.3212 6.81437 22.4812 6.91281 22.6227C7.01125 22.7642 7.17736 22.8257 7.25734 22.7642C7.35578 22.6842 7.35578 22.5242 7.25734 22.3827C7.17121 22.2412 7.01125 22.1797 6.91281 22.2597Z" fill="white"/>
</svg>
