<svg width="31" height="31" viewBox="0 0 31 31" fill="none" xmlns="http://www.w3.org/2000/svg">
<path d="M10.5242 24.2096C10.5242 24.3327 10.3827 24.4311 10.2042 24.4311C10.0012 24.4495 9.85971 24.3511 9.85971 24.2096C9.85971 24.0866 10.0012 23.9881 10.1796 23.9881C10.3642 23.9697 10.5242 24.0681 10.5242 24.2096ZM8.61078 23.9328C8.56771 24.0558 8.69076 24.1973 8.87533 24.2342C9.03529 24.2957 9.21986 24.2342 9.25678 24.1112C9.29369 23.9881 9.1768 23.8466 8.99223 23.7912C8.83226 23.7482 8.65385 23.8097 8.61078 23.9328ZM11.3301 23.8282C11.1517 23.8712 11.0287 23.9881 11.0471 24.1296C11.0656 24.2527 11.2255 24.3327 11.4101 24.2896C11.5885 24.2465 11.7116 24.1296 11.6931 24.0066C11.6747 23.8897 11.5085 23.8097 11.3301 23.8282ZM15.3784 0.252319C6.84505 0.252319 0.317398 6.73075 0.317398 15.2641C0.317398 22.087 4.61175 27.9256 10.7456 29.9805C11.5332 30.122 11.81 29.636 11.81 29.2361C11.81 28.8546 11.7915 26.7505 11.7915 25.4585C11.7915 25.4585 7.4849 26.3814 6.5805 23.6251C6.5805 23.6251 5.87913 21.8348 4.87014 21.3734C4.87014 21.3734 3.46125 20.4074 4.96858 20.4259C4.96858 20.4259 6.50052 20.549 7.34339 22.0132C8.69076 24.388 10.9487 23.7051 11.8285 23.2991C11.97 22.3147 12.3699 21.6318 12.8128 21.2257C9.37367 20.8443 5.90374 20.3459 5.90374 14.4274C5.90374 12.7355 6.37132 11.8864 7.3557 10.8036C7.19574 10.4037 6.67279 8.75488 7.51566 6.62616C8.8015 6.22626 11.7608 8.2873 11.7608 8.2873C12.9913 7.94277 14.314 7.76435 15.6245 7.76435C16.9349 7.76435 18.2577 7.94277 19.4882 8.2873C19.4882 8.2873 22.4474 6.22011 23.7333 6.62616C24.5762 8.76103 24.0532 10.4037 23.8932 10.8036C24.8776 11.8926 25.4806 12.7416 25.4806 14.4274C25.4806 20.3644 21.8568 20.8381 18.4176 21.2257C18.9837 21.7117 19.4635 22.6346 19.4635 24.0804C19.4635 26.1538 19.4451 28.7193 19.4451 29.2238C19.4451 29.6237 19.7281 30.1097 20.5094 29.9682C26.6618 27.9256 30.8331 22.087 30.8331 15.2641C30.8331 6.73075 23.9117 0.252319 15.3784 0.252319ZM6.29749 21.4718C6.21751 21.5333 6.23597 21.6748 6.34056 21.7917C6.439 21.8902 6.5805 21.9332 6.66048 21.8533C6.74046 21.7917 6.72201 21.6502 6.61741 21.5333C6.51898 21.4349 6.37747 21.3918 6.29749 21.4718ZM5.63304 20.9735C5.58997 21.0534 5.65149 21.1519 5.77454 21.2134C5.87298 21.2749 5.99603 21.2565 6.03909 21.1703C6.08216 21.0904 6.02064 20.9919 5.89759 20.9304C5.77454 20.8935 5.6761 20.9119 5.63304 20.9735ZM7.6264 23.1637C7.52796 23.2437 7.56488 23.4283 7.70638 23.5452C7.84789 23.6867 8.02631 23.7051 8.10629 23.6067C8.18627 23.5267 8.14935 23.3421 8.02631 23.2252C7.89095 23.0837 7.70638 23.0653 7.6264 23.1637ZM6.92503 22.2593C6.8266 22.3208 6.8266 22.4808 6.92503 22.6223C7.02347 22.7638 7.18958 22.8253 7.26957 22.7638C7.368 22.6838 7.368 22.5239 7.26957 22.3824C7.18343 22.2409 7.02347 22.1793 6.92503 22.2593Z" fill="white"/>
</svg>
