<svg width="32" height="31" viewBox="0 0 32 31" fill="none" xmlns="http://www.w3.org/2000/svg">
<path d="M10.8493 24.21C10.8493 24.333 10.7078 24.4315 10.5294 24.4315C10.3264 24.4499 10.1849 24.3515 10.1849 24.21C10.1849 24.0869 10.3264 23.9885 10.5048 23.9885C10.6894 23.97 10.8493 24.0685 10.8493 24.21ZM8.93593 23.9331C8.89286 24.0562 9.01591 24.1977 9.20048 24.2346C9.36044 24.2961 9.54501 24.2346 9.58193 24.1115C9.61884 23.9885 9.50195 23.847 9.31738 23.7916C9.15741 23.7485 8.979 23.8101 8.93593 23.9331ZM11.6553 23.8285C11.4769 23.8716 11.3538 23.9885 11.3723 24.13C11.3907 24.253 11.5507 24.333 11.7353 24.29C11.9137 24.2469 12.0367 24.13 12.0183 24.0069C11.9998 23.8901 11.8337 23.8101 11.6553 23.8285ZM15.7035 0.252686C7.1702 0.252686 0.642548 6.73112 0.642548 15.2644C0.642548 22.0874 4.9369 27.926 11.0708 29.9809C11.8583 30.1224 12.1352 29.6364 12.1352 29.2365C12.1352 28.855 12.1167 26.7509 12.1167 25.4589C12.1167 25.4589 7.81005 26.3818 6.90565 23.6255C6.90565 23.6255 6.20428 21.8352 5.19529 21.3737C5.19529 21.3737 3.7864 20.4078 5.29373 20.4263C5.29373 20.4263 6.82567 20.5493 7.66854 22.0136C9.01591 24.3884 11.2738 23.7055 12.1536 23.2994C12.2951 22.315 12.695 21.6321 13.138 21.2261C9.69882 20.8446 6.22889 20.3463 6.22889 14.4277C6.22889 12.7358 6.69647 11.8868 7.68085 10.804C7.52089 10.4041 6.99794 8.75525 7.84081 6.62653C9.12665 6.22663 12.0859 8.28767 12.0859 8.28767C13.3164 7.94314 14.6392 7.76472 15.9496 7.76472C17.2601 7.76472 18.5828 7.94314 19.8133 8.28767C19.8133 8.28767 22.7726 6.22047 24.0584 6.62653C24.9013 8.7614 24.3784 10.4041 24.2184 10.804C25.2028 11.8929 25.8057 12.742 25.8057 14.4277C25.8057 20.3647 22.182 20.8385 18.7428 21.2261C19.3088 21.7121 19.7887 22.635 19.7887 24.0808C19.7887 26.1541 19.7702 28.7197 19.7702 29.2241C19.7702 29.624 20.0532 30.1101 20.8346 29.9686C26.987 27.926 31.1583 22.0874 31.1583 15.2644C31.1583 6.73112 24.2368 0.252686 15.7035 0.252686ZM6.62264 21.4722C6.54266 21.5337 6.56112 21.6752 6.66571 21.7921C6.76415 21.8905 6.90565 21.9336 6.98563 21.8536C7.06561 21.7921 7.04715 21.6506 6.94256 21.5337C6.84413 21.4353 6.70262 21.3922 6.62264 21.4722ZM5.95819 20.9738C5.91512 21.0538 5.97664 21.1523 6.09969 21.2138C6.19813 21.2753 6.32118 21.2568 6.36424 21.1707C6.40731 21.0907 6.34579 20.9923 6.22274 20.9308C6.09969 20.8939 6.00125 20.9123 5.95819 20.9738ZM7.95155 23.1641C7.85311 23.2441 7.89003 23.4286 8.03153 23.5455C8.17304 23.687 8.35145 23.7055 8.43144 23.607C8.51142 23.5271 8.4745 23.3425 8.35146 23.2256C8.2161 23.0841 8.03153 23.0656 7.95155 23.1641ZM7.25018 22.2597C7.15174 22.3212 7.15174 22.4812 7.25018 22.6227C7.34862 22.7642 7.51473 22.8257 7.59471 22.7642C7.69315 22.6842 7.69315 22.5242 7.59471 22.3827C7.50858 22.2412 7.34862 22.1797 7.25018 22.2597Z" fill="white"/>
</svg>
