<svg width="32" height="31" viewBox="0 0 32 31" fill="none" xmlns="http://www.w3.org/2000/svg">
<path d="M11.1867 24.21C11.1867 24.333 11.0452 24.4315 10.8667 24.4315C10.6637 24.4499 10.5222 24.3515 10.5222 24.21C10.5222 24.0869 10.6637 23.9885 10.8421 23.9885C11.0267 23.97 11.1867 24.0685 11.1867 24.21ZM9.27329 23.9331C9.23022 24.0562 9.35327 24.1977 9.53784 24.2346C9.6978 24.2961 9.88237 24.2346 9.91928 24.1115C9.9562 23.9885 9.8393 23.847 9.65473 23.7916C9.49477 23.7485 9.31635 23.8101 9.27329 23.9331ZM11.9926 23.8285C11.8142 23.8716 11.6912 23.9885 11.7096 24.13C11.7281 24.253 11.888 24.333 12.0726 24.29C12.251 24.2469 12.3741 24.13 12.3556 24.0069C12.3372 23.8901 12.171 23.8101 11.9926 23.8285ZM16.0409 0.252686C7.50756 0.252686 0.979904 6.73112 0.979904 15.2644C0.979904 22.0874 5.27425 27.926 11.4082 29.9809C12.1957 30.1224 12.4725 29.6364 12.4725 29.2365C12.4725 28.855 12.4541 26.7509 12.4541 25.4589C12.4541 25.4589 8.1474 26.3818 7.24301 23.6255C7.24301 23.6255 6.54164 21.8352 5.53265 21.3737C5.53265 21.3737 4.12376 20.4078 5.63109 20.4263C5.63109 20.4263 7.16303 20.5493 8.0059 22.0136C9.35327 24.3884 11.6112 23.7055 12.491 23.2994C12.6325 22.315 13.0324 21.6321 13.4753 21.2261C10.0362 20.8446 6.56625 20.3463 6.56625 14.4277C6.56625 12.7358 7.03383 11.8868 8.0182 10.804C7.85824 10.4041 7.33529 8.75525 8.17817 6.62653C9.46401 6.22663 12.4233 8.28767 12.4233 8.28767C13.6538 7.94314 14.9765 7.76472 16.287 7.76472C17.5974 7.76472 18.9202 7.94314 20.1507 8.28767C20.1507 8.28767 23.1099 6.22047 24.3958 6.62653C25.2387 8.7614 24.7157 10.4041 24.5557 10.804C25.5401 11.8929 26.1431 12.742 26.1431 14.4277C26.1431 20.3647 22.5193 20.8385 19.0801 21.2261C19.6462 21.7121 20.126 22.635 20.126 24.0808C20.126 26.1541 20.1076 28.7197 20.1076 29.2241C20.1076 29.624 20.3906 30.1101 21.172 29.9686C27.3243 27.926 31.4956 22.0874 31.4956 15.2644C31.4956 6.73112 24.5742 0.252686 16.0409 0.252686ZM6.96 21.4722C6.88002 21.5337 6.89847 21.6752 7.00306 21.7921C7.1015 21.8905 7.24301 21.9336 7.32299 21.8536C7.40297 21.7921 7.38451 21.6506 7.27992 21.5337C7.18148 21.4353 7.03998 21.3922 6.96 21.4722ZM6.29554 20.9738C6.25248 21.0538 6.314 21.1523 6.43705 21.2138C6.53549 21.2753 6.65853 21.2568 6.7016 21.1707C6.74467 21.0907 6.68314 20.9923 6.56009 20.9308C6.43705 20.8939 6.33861 20.9123 6.29554 20.9738ZM8.28891 23.1641C8.19047 23.2441 8.22738 23.4286 8.36889 23.5455C8.51039 23.687 8.68881 23.7055 8.76879 23.607C8.84877 23.5271 8.81186 23.3425 8.68881 23.2256C8.55346 23.0841 8.36889 23.0656 8.28891 23.1641ZM7.58754 22.2597C7.4891 22.3212 7.4891 22.4812 7.58754 22.6227C7.68598 22.7642 7.85209 22.8257 7.93207 22.7642C8.03051 22.6842 8.03051 22.5242 7.93207 22.3827C7.84594 22.2412 7.68598 22.1797 7.58754 22.2597Z" fill="white"/>
</svg>
