<svg width="32" height="31" viewBox="0 0 32 31" fill="none" xmlns="http://www.w3.org/2000/svg">
<path d="M10.8615 24.2096C10.8615 24.3327 10.72 24.4311 10.5416 24.4311C10.3386 24.4495 10.1971 24.3511 10.1971 24.2096C10.1971 24.0866 10.3386 23.9881 10.517 23.9881C10.7016 23.9697 10.8615 24.0681 10.8615 24.2096ZM8.94814 23.9328C8.90507 24.0558 9.02812 24.1973 9.21269 24.2342C9.37265 24.2957 9.55722 24.2342 9.59413 24.1112C9.63105 23.9881 9.51415 23.8466 9.32958 23.7912C9.16962 23.7482 8.9912 23.8097 8.94814 23.9328ZM11.6675 23.8282C11.4891 23.8712 11.366 23.9881 11.3845 24.1296C11.4029 24.2527 11.5629 24.3327 11.7475 24.2896C11.9259 24.2465 12.0489 24.1296 12.0305 24.0066C12.012 23.8897 11.8459 23.8097 11.6675 23.8282ZM15.7157 0.252319C7.18241 0.252319 0.654755 6.73075 0.654755 15.2641C0.654755 22.087 4.9491 27.9256 11.083 29.9805C11.8705 30.122 12.1474 29.636 12.1474 29.2361C12.1474 28.8546 12.1289 26.7505 12.1289 25.4585C12.1289 25.4585 7.82225 26.3814 6.91786 23.6251C6.91786 23.6251 6.21649 21.8348 5.2075 21.3734C5.2075 21.3734 3.79861 20.4074 5.30594 20.4259C5.30594 20.4259 6.83788 20.549 7.68075 22.0132C9.02812 24.388 11.286 23.7051 12.1658 23.2991C12.3073 22.3147 12.7072 21.6318 13.1502 21.2257C9.71103 20.8443 6.2411 20.3459 6.2411 14.4274C6.2411 12.7355 6.70868 11.8864 7.69305 10.8036C7.53309 10.4037 7.01014 8.75488 7.85302 6.62616C9.13886 6.22626 12.0981 8.2873 12.0981 8.2873C13.3286 7.94277 14.6514 7.76435 15.9618 7.76435C17.2723 7.76435 18.595 7.94277 19.8255 8.2873C19.8255 8.2873 22.7848 6.22011 24.0706 6.62616C24.9135 8.76103 24.3906 10.4037 24.2306 10.8036C25.215 11.8926 25.8179 12.7416 25.8179 14.4274C25.8179 20.3644 22.1942 20.8381 18.755 21.2257C19.321 21.7117 19.8009 22.6346 19.8009 24.0804C19.8009 26.1538 19.7824 28.7193 19.7824 29.2238C19.7824 29.6237 20.0655 30.1097 20.8468 29.9682C26.9992 27.9256 31.1705 22.087 31.1705 15.2641C31.1705 6.73075 24.2491 0.252319 15.7157 0.252319ZM6.63485 21.4718C6.55487 21.5333 6.57333 21.6748 6.67792 21.7917C6.77635 21.8902 6.91786 21.9332 6.99784 21.8533C7.07782 21.7917 7.05936 21.6502 6.95477 21.5333C6.85633 21.4349 6.71483 21.3918 6.63485 21.4718ZM5.97039 20.9735C5.92733 21.0534 5.98885 21.1519 6.1119 21.2134C6.21034 21.2749 6.33338 21.2565 6.37645 21.1703C6.41952 21.0904 6.35799 20.9919 6.23495 20.9304C6.1119 20.8935 6.01346 20.9119 5.97039 20.9735ZM7.96376 23.1637C7.86532 23.2437 7.90223 23.4283 8.04374 23.5452C8.18524 23.6867 8.36366 23.7051 8.44364 23.6067C8.52362 23.5267 8.48671 23.3421 8.36366 23.2252C8.22831 23.0837 8.04374 23.0653 7.96376 23.1637ZM7.26239 22.2593C7.16395 22.3208 7.16395 22.4808 7.26239 22.6223C7.36083 22.7638 7.52694 22.8253 7.60692 22.7638C7.70536 22.6838 7.70536 22.5239 7.60692 22.3824C7.52079 22.2409 7.36083 22.1793 7.26239 22.2593Z" fill="white"/>
</svg>
