<svg xmlns="http://www.w3.org/2000/svg" role="img" width="26" height="25" viewBox="0 0 26 25" fill="none">
  <g clip-path="url(#clip0_94_4017)">
    <path d="M4.39771 6.27951H2.54288C2.02893 6.27951 1.61546 6.69298 1.61546 7.20692V11.2257H0.688045C0.518019 11.2257 0.378906 11.3648 0.378906 11.5349V13.3897C0.378906 13.5597 0.518019 13.6988 0.688045 13.6988H1.61546V17.7176C1.61546 18.2316 2.02893 18.645 2.54288 18.645H4.39771C4.91165 18.645 5.32512 18.2316 5.32512 17.7176V7.20692C5.32512 6.69298 4.91165 6.27951 4.39771 6.27951ZM24.8009 11.2257H23.8734V7.20692C23.8734 6.69298 23.46 6.27951 22.946 6.27951H21.0912C20.5773 6.27951 20.1638 6.69298 20.1638 7.20692V17.7176C20.1638 18.2316 20.5773 18.645 21.0912 18.645H22.946C23.46 18.645 23.8734 18.2316 23.8734 17.7176V13.6988H24.8009C24.9709 13.6988 25.11 13.5597 25.11 13.3897V11.5349C25.11 11.3648 24.9709 11.2257 24.8009 11.2257ZM17.9998 3.8064H16.145C15.631 3.8064 15.2176 4.21987 15.2176 4.73381V11.2257H10.2713V4.73381C10.2713 4.21987 9.85787 3.8064 9.34393 3.8064H7.48909C6.97515 3.8064 6.56168 4.21987 6.56168 4.73381V20.1907C6.56168 20.7047 6.97515 21.1182 7.48909 21.1182H9.34393C9.85787 21.1182 10.2713 20.7047 10.2713 20.1907V13.6988H15.2176V20.1907C15.2176 20.7047 15.631 21.1182 16.145 21.1182H17.9998C18.5138 21.1182 18.9272 20.7047 18.9272 20.1907V4.73381C18.9272 4.21987 18.5138 3.8064 17.9998 3.8064Z" fill="white"/>
  </g>
  <defs>
    <clipPath id="clip0_94_4017">
      <rect width="24.7311" height="24.7311" fill="white" transform="translate(0.378906 0.0966797)"/>
    </clipPath>
  </defs>
</svg>