<svg xmlns="http://www.w3.org/2000/svg" width="39" height="39" viewBox="0 0 39 39" fill="none">
<path d="M33.1802 26.5017C32.3652 25.0979 31.1538 21.1258 31.1538 15.9379C31.1538 12.8224 29.9162 9.83441 27.7131 7.63137C25.5101 5.42833 22.5221 4.19067 19.4065 4.19067C16.291 4.19067 13.303 5.42833 11.1 7.63137C8.89693 9.83441 7.65928 12.8224 7.65928 15.9379C7.65928 21.1273 6.44637 25.0979 5.6314 26.5017C5.42329 26.8586 5.31296 27.264 5.31154 27.6771C5.31012 28.0903 5.41766 28.4965 5.62332 28.8548C5.82899 29.2131 6.12549 29.5108 6.48294 29.718C6.84039 29.9251 7.24614 30.0344 7.65928 30.0347H13.6519C13.9229 31.3609 14.6436 32.5528 15.6923 33.4087C16.7409 34.2647 18.0529 34.7322 19.4065 34.7322C20.7602 34.7322 22.0722 34.2647 23.1208 33.4087C24.1694 32.5528 24.8902 31.3609 25.1612 30.0347H31.1538C31.5668 30.0341 31.9724 29.9247 32.3296 29.7174C32.6869 29.5102 32.9832 29.2124 33.1887 28.8541C33.3941 28.4959 33.5016 28.0898 33.5001 27.6768C33.4986 27.2638 33.3883 26.8584 33.1802 26.5017ZM19.4065 32.3841C18.6779 32.3839 17.9673 32.1578 17.3725 31.7371C16.7777 31.3164 16.3279 30.7216 16.085 30.0347H22.7281C22.4852 30.7216 22.0354 31.3164 21.4406 31.7371C20.8458 32.1578 20.1351 32.3839 19.4065 32.3841ZM7.65928 27.6852C8.78995 25.741 10.0087 21.236 10.0087 15.9379C10.0087 13.4455 10.9989 11.0551 12.7613 9.29268C14.5237 7.53025 16.9141 6.54013 19.4065 6.54013C21.899 6.54013 24.2894 7.53025 26.0518 9.29268C27.8142 11.0551 28.8044 13.4455 28.8044 15.9379C28.8044 21.2316 30.0202 25.7366 31.1538 27.6852H7.65928Z" fill="white"/>
</svg>